<svg xmlns="http://www.w3.org/2000/svg" height="24" viewBox="0 -960 960 960" width="24" fill="currentColor">
  <path d="M200-120q-33 0-56.5-23.5T120-200v-560q0-33 23.5-56.5T200-840h280q17 0 28.5 11.5T520-800q0 17-11.5 28.5T480-760H200v560h280q17 0 28.5 11.5T520-160q0 17-11.5 28.5T480-120H200Zm440-160q-12-12-11.5-28t12.5-28l102-104H360q-17 0-28.5-11.5T320-480q0-17 11.5-28.5T360-520h383L641-624q-12-12-12.5-28t11.5-28q12-12 28.5-12t28.5 12l200 200q12 12 12 28t-12 28L697-280q-12 12-28.5 12t-28.5-12Z"/>
</svg>
